####
#
# OBJ File
#
####
# Object test_doublebox.obj
#
# Vertices: 12
# Faces: 20
#
####
vn 0.577350 0.577350 0.577350
v 0.500000 0.500000 0.500000
vn -0.333333 0.666667 0.666667
v -0.500000 0.500000 0.500000
vn 0.666667 -0.333333 0.666667
v 0.500000 -0.500000 0.500000
vn -0.666667 -0.666667 0.333333
v -0.500000 -0.500000 0.500000
vn 0.666667 0.666667 -0.333333
v 0.500000 0.500000 -0.500000
vn -0.666667 0.333333 -0.666667
v -0.500000 0.500000 -0.500000
vn 0.333333 -0.666667 -0.666667
v 0.500000 -0.500000 -0.500000
vn -0.577350 -0.577350 -0.577350
v -0.500000 -0.500000 -0.500000

vn 0.577350 0.577350 0.577350
v 0.500000 0.500000 1.500000
vn -0.333333 0.666667 0.666667
v -0.500000 0.500000 1.500000
vn 0.666667 -0.333333 0.666667
v 0.500000 -0.500000 1.500000
vn -0.666667 -0.666667 0.333333
v -0.500000 -0.500000 1.500000
# 12 vertices, 0 vertices normals

g box1
f 1//1 3//3 5//5
f 7//7 5//5 3//3
f 1//1 5//5 2//2
f 6//6 2//2 5//5
f 8//8 6//6 7//7
f 5//5 7//7 6//6
f 8//8 7//7 4//4
f 3//3 4//4 7//7
f 8//8 4//4 6//6
f 2//2 6//6 4//4
g box2
f 9//9 10//10 11//11
f 12//12 11//11 10//10
f 9//9 11//11 1//1
f 3//3 1//1 11//11
f 9//9 1//1 10//10
f 2//2 10//10 1//1
f 4//4 3//3 12//12
f 11//11 12//12 3//3
f 4//4 12//12 2//2
f 10//10 2//2 12//12

# 20 faces, 0 coords texture

# End of File
